# xmcd
#
# Track frame offsets:
#	150
#	17384
#	32596
#	48074
#	60129
#	80648
#	96516
#	112752
#	127019
#	138359
#	154711
#	173649
#	187938
#	203299
#	218301
#	237361
#	253000
#	268255
#
# Disc length: 3807 seconds
#
# Revision: 1
# Processed by: cddbd v1.5.2PL0 Copyright (c) Steve Scherf et al.
# Submitted via: audiograbber 1.83.01
#
DISCID=db0edd12
DTITLE=Various Artist - Promo Only Country Radio February 2014
DYEAR=2014
DGENRE=Country
TTITLE0=Kip Moore - Young Love (Radio Edit)
TTITLE1=Will Hoge - Strong
TTITLE2=Brad Paisley - The Mona Lisa (Radio Edit)
TTITLE3=Craig Campbell - Keep Them Kisses Comin' (Hot Radio Mix)
TTITLE4=The Cadillac Three f./Florida Georgia Line, Dierks Bentley and Mike El - 
TTITLE4=The South
TTITLE5=Joel Crouse - Why God Made Love Songs
TTITLE6=Blake Shelton - Doin' What She Likes
TTITLE7=Kelleigh Bannen - Famous
TTITLE8=JJ Lawhorn - You Can Tell A Man By His Truck (Radio Edit)
TTITLE9=Brantley Gilbert - Bottoms Up
TTITLE10=Keith Urban - Cop Car (Radio Edit)
TTITLE11=Chris Young - Who Am I With You
TTITLE12=Aaron Watson - July In Cheyenne
TTITLE13=Hannah Bethel - Medicine
TTITLE14=Bernie Nelson - Scarecrow
TTITLE15=Skylar Elise - Gypsy Soul (You Again)
TTITLE16=GB Leighton - Get Up
TTITLE17=Brian Milson - Nothing Grows In Shadows
EXTD=
EXTT0=
EXTT1=
EXTT2=
EXTT3=
EXTT4=
EXTT5=
EXTT6=
EXTT7=
EXTT8=
EXTT9=
EXTT10=
EXTT11=
EXTT12=
EXTT13=
EXTT14=
EXTT15=
EXTT16=
EXTT17=
PLAYORDER=
